<svg width="44" height="44" viewBox="0 0 44 44" fill="none" xmlns="http://www.w3.org/2000/svg">
<circle cx="22" cy="22" r="21.7" stroke="white" stroke-width="0.6"/>
<path d="M19.25 16V18.25V19.875H25.75V18.25V16C25.75 15.4477 25.3023 15 24.75 15H20.25C19.6977 15 19.25 15.4477 19.25 16Z" stroke="white"/>
<path fill-rule="evenodd" clip-rule="evenodd" d="M16 19.25C16 18.6977 16.4477 18.25 17 18.25H28C28.5523 18.25 29 18.6977 29 19.25V28.625C29 29.1773 28.5523 29.625 28 29.625H17C16.4477 29.625 16 29.1773 16 28.625V19.25ZM23 24.6717C23.6528 24.4608 24.125 23.8481 24.125 23.1251C24.125 22.2276 23.3975 21.5001 22.5 21.5001C21.6025 21.5001 20.875 22.2276 20.875 23.1251C20.875 23.8481 21.3472 24.4608 22 24.6717V26.3751H23V24.6717Z" fill="white"/>
</svg>
