<svg width="13" height="16" viewBox="0 0 13 16" fill="none" xmlns="http://www.w3.org/2000/svg">
<path d="M3.25 1.99994V4.24994V5.87494H9.75V4.24994V1.99994C9.75 1.44765 9.30228 0.999939 8.75 0.999939H4.25C3.69772 0.999939 3.25 1.44765 3.25 1.99994Z" stroke="#A49E9B"/>
<path fill-rule="evenodd" clip-rule="evenodd" d="M0 5.24994C0 4.69765 0.447715 4.24994 1 4.24994H12C12.5523 4.24994 13 4.69765 13 5.24994V14.6249C13 15.1772 12.5523 15.6249 12 15.6249H1C0.447715 15.6249 0 15.1772 0 14.6249V5.24994ZM7.00058 10.6716C7.65332 10.4606 8.12543 9.84793 8.12543 9.12498C8.12543 8.22751 7.3979 7.49997 6.50043 7.49997C5.60297 7.49997 4.87543 8.22751 4.87543 9.12498C4.87543 9.84804 5.34769 10.4608 6.00058 10.6716V12.375H7.00058V10.6716Z" fill="#A49E9B"/>
</svg>
