<svg width="14" height="14" viewBox="0 0 14 14" fill="none" xmlns="http://www.w3.org/2000/svg">
<g clip-path="url(#clip0)">
<path d="M11.3064 3.9624C10.8336 1.58991 8.527 0.050006 6.1545 0.522861C4.41924 0.868716 3.06242 2.22469 2.71549 3.95973C1.03332 4.1536 -0.173333 5.67438 0.0204228 7.35666C0.198798 8.90489 1.51012 10.073 3.06861 10.0719H5.25867C5.5006 10.0719 5.69671 9.87581 5.69671 9.63388C5.69671 9.39195 5.5006 9.19585 5.25867 9.19585H3.06861C1.85897 9.18869 0.884314 8.20239 0.891364 6.99286C0.89852 5.78322 1.88482 4.80846 3.09446 4.81562C3.31769 4.81562 3.50526 4.64771 3.52982 4.42575C3.7522 2.50336 5.49099 1.12517 7.41349 1.34755C9.02976 1.53447 10.3048 2.80948 10.4917 4.42575C10.5284 4.65166 10.7241 4.81711 10.9529 4.81562C12.1625 4.81562 13.1431 5.79614 13.1431 7.00578C13.1431 8.21532 12.1625 9.19585 10.9529 9.19585H8.76284C8.52091 9.19585 8.32481 9.39195 8.32481 9.63388C8.32481 9.87581 8.52091 10.0719 8.76284 10.0719H10.953C12.6463 10.0613 14.0105 8.68006 14 6.98677C13.9904 5.44474 12.8371 4.14975 11.3064 3.9624Z" fill="#726364"/>
<path d="M8.55986 10.9699L7.44945 12.0806V6.56773C7.44945 6.32581 7.25334 6.1297 7.01152 6.1297C6.76959 6.1297 6.57349 6.32581 6.57349 6.56773V12.0806L5.46308 10.9699C5.29506 10.7958 5.01767 10.791 4.84368 10.9591C4.66968 11.1271 4.66487 11.4044 4.83289 11.5784C4.83652 11.5821 4.84004 11.5856 4.84368 11.5892L6.70134 13.4473C6.74193 13.4877 6.78999 13.5199 6.84287 13.5419C6.95064 13.5875 7.0723 13.5875 7.18018 13.5419C7.23305 13.5199 7.28111 13.4877 7.3216 13.4473L9.17926 11.5892C9.35326 11.4211 9.35806 11.1439 9.19005 10.9699C9.02193 10.7959 8.74465 10.7911 8.57065 10.9591C8.56702 10.9626 8.56339 10.9661 8.55986 10.9699Z" fill="#726364"/>
</g>
<defs>
<clipPath id="clip0">
<rect width="14" height="14" fill="white"/>
</clipPath>
</defs>
</svg>
