<svg width="16" height="16" viewBox="0 0 16 16" fill="none" xmlns="http://www.w3.org/2000/svg">
<path d="M8.45733 6.93619C8.28169 7.11184 8.28169 7.39353 8.45733 7.56917C9.1831 8.29493 9.1831 9.47472 8.45733 10.2005L4.64623 14.0116C3.92046 14.7374 2.74068 14.7374 2.01491 14.0116L1.44159 13.4383C0.715824 12.7125 0.715824 11.5327 1.44159 10.8069L5.25269 6.99585C5.42833 6.8202 5.42833 6.53851 5.25269 6.36287C5.07705 6.18723 4.79536 6.18723 4.61972 6.36287L0.808616 10.174C0.288318 10.6943 0 11.3869 0 12.1226C0 12.8583 0.285004 13.5509 0.808616 14.0712L1.38194 14.6446C1.91881 15.1814 2.62469 15.4499 3.33057 15.4499C4.03645 15.4499 4.74234 15.1814 5.2792 14.6446L9.09031 10.8335C10.164 9.75972 10.164 8.00993 9.09031 6.93619C8.91798 6.76055 8.63297 6.76055 8.45733 6.93619Z" fill="#232120"/>
<path d="M15.1944 1.92873L14.6211 1.35541C13.5474 0.281676 11.7976 0.281676 10.7238 1.35541L6.91272 5.16651C5.83899 6.24025 5.83899 7.99004 6.91272 9.06378C7.08837 9.23942 7.37006 9.23942 7.5457 9.06378C7.72134 8.88814 7.72134 8.60645 7.5457 8.43081C6.81993 7.70504 6.81993 6.52525 7.5457 5.79949L11.3568 1.98839C12.0826 1.26262 13.2624 1.26262 13.9881 1.98839L14.5614 2.56171C15.2872 3.28748 15.2872 4.46726 14.5614 5.19303L10.7503 9.00413C10.5747 9.17977 10.5747 9.46146 10.7503 9.6371C10.8365 9.72327 10.9525 9.76966 11.0652 9.76966C11.1778 9.76966 11.2938 9.72658 11.38 9.6371L15.1911 5.826C15.7114 5.3057 15.9997 4.61308 15.9997 3.87737C15.9997 3.14166 15.7147 2.44903 15.1944 1.92873Z" fill="#232120"/>
</svg>
