<svg width="18" height="13" viewBox="0 0 18 13" fill="none" xmlns="http://www.w3.org/2000/svg">
<path d="M18 2.91797V1.96875C18 0.881438 17.1186 0 16.0312 0H1.96875C0.881438 0 0 0.881438 0 1.96875V2.91797C0 3.01504 0.0787148 3.09375 0.175781 3.09375H17.8242C17.9213 3.09375 18 3.01504 18 2.91797Z" fill="#686563"/>
<path d="M0 4.39453V10.4062C0 11.4936 0.881438 12.375 1.96875 12.375H16.0312C17.1186 12.375 18 11.4936 18 10.4062V4.39453C18 4.29746 17.9213 4.21875 17.8242 4.21875H0.175781C0.0787148 4.21875 0 4.29746 0 4.39453ZM4.5 9C4.5 9.31064 4.24814 9.5625 3.9375 9.5625H3.375C3.06436 9.5625 2.8125 9.31064 2.8125 9V8.4375C2.8125 8.12686 3.06436 7.875 3.375 7.875H3.9375C4.24814 7.875 4.5 8.12686 4.5 8.4375V9Z" fill="#686563"/>
</svg>
