<svg width="28" height="28" viewBox="0 0 28 28" fill="none" xmlns="http://www.w3.org/2000/svg">
<path d="M27.6792 12.1387L22.9106 6.74284C22.8068 6.62537 22.6576 6.55811 22.5008 6.55811H5.49909C5.34235 6.55811 5.19311 6.62537 5.08931 6.74284L0.320674 12.1387C0.178267 12.2999 0.143541 12.5295 0.231916 12.7256C0.26522 12.7995 0.313783 12.8634 0.372845 12.9144C0.373994 12.9157 0.374869 12.9171 0.376017 12.9184L13.5908 27.8161C13.6946 27.9332 13.8435 28.0001 13.9999 28.0001C14.1563 28.0001 14.3053 27.9331 14.409 27.8161L27.6238 12.9184C27.625 12.9172 27.6259 12.9157 27.627 12.9144C27.686 12.8634 27.7346 12.7995 27.7679 12.7256C27.8563 12.5295 27.8216 12.2999 27.6792 12.1387ZM21.5311 7.6518L19.1007 11.5698L15.2059 7.6518H21.5311ZM17.9404 11.954H10.0595L13.9999 7.99004L17.9404 11.954ZM12.794 7.65186L8.89912 11.5699L6.46875 7.65186H12.794ZM5.41421 8.02679L7.85027 11.954H1.94358L5.41421 8.02679ZM1.95277 13.0477H8.41563L12.8801 25.3667L1.95277 13.0477ZM15.1401 25.3438L18.2593 16.9016C18.364 16.6183 18.2192 16.3037 17.9359 16.1991C17.6525 16.0943 17.338 16.2392 17.2334 16.5225L14.0049 25.2603L9.57899 13.0477H26.0471L15.1401 25.3438ZM20.1496 11.954L22.5856 8.02679L26.0563 11.954H20.1496Z" fill="#CB5050"/>
<path d="M14 0C13.698 0 13.4531 0.244836 13.4531 0.546875V3.36399C13.4531 3.66603 13.698 3.91087 14 3.91087C14.302 3.91087 14.5469 3.66603 14.5469 3.36399V0.546875C14.5469 0.244836 14.302 0 14 0Z" fill="#CB5050"/>
<path d="M18.9803 2.16114C18.7668 1.94759 18.4206 1.94759 18.2069 2.16114L16.2149 4.15314C16.0013 4.36669 16.0013 4.71297 16.2149 4.92653C16.3217 5.03333 16.4617 5.08671 16.6016 5.08671C16.7415 5.08671 16.8815 5.03328 16.9883 4.92653L18.9803 2.93453C19.1939 2.72098 19.1939 2.3747 18.9803 2.16114Z" fill="#CB5050"/>
<path d="M11.6795 4.15314L9.68752 2.16114C9.47402 1.94759 9.12785 1.94759 8.91407 2.16114C8.70052 2.3747 8.70052 2.72098 8.91407 2.93453L10.9061 4.92653C11.0129 5.03333 11.1529 5.08671 11.2928 5.08671C11.4328 5.08671 11.5727 5.03328 11.6795 4.92653C11.8931 4.71297 11.8931 4.36669 11.6795 4.15314Z" fill="#CB5050"/>
<path d="M18.4531 15.2227C18.7552 15.2227 19 14.9778 19 14.6758C19 14.3738 18.7552 14.1289 18.4531 14.1289C18.1511 14.1289 17.9062 14.3738 17.9062 14.6758C17.9062 14.9778 18.1511 15.2227 18.4531 15.2227Z" fill="#CB5050"/>
</svg>
