<svg xmlns="http://www.w3.org/2000/svg" viewBox="0 0 115.7 115.71"><defs><style>.cls-1{fill:#9b847a;}</style></defs><title>Asset 21</title><g id="Layer_2" data-name="Layer 2"><g id="Layer_1-2" data-name="Layer 1"><path class="cls-1" d="M58.3,115.71h-.65A57.85,57.85,0,0,1,57.85,0H58A57.86,57.86,0,0,1,90.07,105.91a1,1,0,0,1-1.39-.28,1,1,0,0,1,.27-1.38A55.86,55.86,0,0,0,58,2h-.15a55.85,55.85,0,0,0-.15,111.7c.18,0,12.93.51,19.65-8.87A1,1,0,0,1,79,106C72.44,115.11,61.15,115.71,58.3,115.71Z"/><path class="cls-1" d="M42.2,113.52a1,1,0,0,1-.68-.27c-8.67-8-12.44-15.69-11.23-23,1.71-10.18,12.58-16,15.1-17.15l.46-2.83c-1.2-.84-3.85-3-4.14-5.91-.2-1.94.66-3.79,2.56-5.5,5.59-5,5.73-5.14,10-8.88l0-7.31c-2,.14-6.29.1-9.36-2.39a9.69,9.69,0,0,1-3.4-7.51C41,21.43,47.42,17.27,47.7,17.1c.1-.07,3.33-2.25,6.3-.82,2.3,1.1,3.65,4,4,8.62v1a6.39,6.39,0,0,1,3.69.54,4.3,4.3,0,0,1,2.12,2.68,4,4,0,0,1-.34,3.39,5.66,5.66,0,0,1-3,2.18c.26,1.74.45,5.28-2.08,6.52a1,1,0,1,1-.88-1.8c1.56-.77,1.11-4.1.83-5.2a1,1,0,0,1,.13-.8,1.06,1.06,0,0,1,.67-.44,4.36,4.36,0,0,0,2.68-1.52,2,2,0,0,0,.13-1.75c-.83-2.74-4.46-1.68-4.61-1.63a1,1,0,0,1-.89-.16,1,1,0,0,1-.4-.8V25c-.29-3.71-1.28-6.12-2.87-6.89-1.92-.92-4.33.68-4.35.69-.26.17-5.73,3.8-5.3,13.94a7.79,7.79,0,0,0,2.66,6c3.39,2.74,8.88,1.85,8.93,1.84a1,1,0,0,1,1.17,1l0,8.88a1,1,0,0,1-.34.74c-4.56,4-4.56,4-10.28,9.17-1.4,1.25-2,2.53-1.91,3.8.26,2.69,3.72,4.76,3.76,4.78a1,1,0,0,1,.47,1l-.66,4a1,1,0,0,1-.58.75c-.13.06-12.72,5.68-14.43,15.89-1.09,6.56,2.48,13.68,10.62,21.16a1,1,0,0,1,0,1.42A1,1,0,0,1,42.2,113.52Z"/><path class="cls-1" d="M83.32,108.15a6.88,6.88,0,0,1-2.13-.33c-5.79-1.9-6.3-11-6.32-11.4C73.74,86.3,73.64,69.5,73.64,69.33c-.45-9.72-2.78-16.11-6.75-18.45a8.37,8.37,0,0,0-7.39-.24,1,1,0,0,1-.89-1.8,10.4,10.4,0,0,1,9.3.32c4.64,2.73,7.24,9.5,7.73,20.12,0,.21.09,16.91,1.23,27,0,.15.46,8.19,4.95,9.66,3.18,1,9.51-.87,21.66-15.85a1,1,0,0,1,1.4-.15,1,1,0,0,1,.15,1.41C96,102.51,88.68,108.15,83.32,108.15Z"/><path class="cls-1" d="M41.9,88.08l-1,0c-4.6-.2-11.39-1.91-17.54-9-12.1-13.88,2.36-28.47,2.51-28.62s7.08-7.29,6.6-21.71C32.27,22.31,34,17.34,37.55,14c5.39-5.1,13.11-4.74,14.11-4.66A17.24,17.24,0,0,1,63.36,13c4.26,3.42,6.82,8.89,7.61,16.26v.14c0,.15-.42,15.18,10,18.66,1,.32,2,.65,3.17,1C96,52.71,115.8,58.84,108.85,85.12a1,1,0,0,1-1.22.71,1,1,0,0,1-.71-1.22c6.46-24.43-11.48-30-23.35-33.65-1.14-.35-2.23-.68-3.22-1C75.41,48.3,71.88,44.18,70.13,38A31.15,31.15,0,0,1,69,29.39c-.73-6.77-3-11.76-6.83-14.82a15.51,15.51,0,0,0-10.36-3.28h-.19c-.08,0-7.69-.61-12.68,4.13-3.13,3-4.62,7.42-4.43,13.25C35,44,27.6,51.57,27.29,51.88a27.48,27.48,0,0,0-5.39,8.35c-2.57,6.43-1.56,12.33,3,17.54,10.55,12.1,23,7.49,23.88,7.15.93-.53,2-1.21,3.1-2l-3.16-1.87a4.14,4.14,0,0,1-1.84-2.75A3.38,3.38,0,0,1,48,75.54a2.79,2.79,0,0,1,2.79-.75,5.62,5.62,0,0,1,2.5,1.51,3.68,3.68,0,0,1,2-2,2.9,2.9,0,0,1,3,.87,2.84,2.84,0,0,1,1,2.49c-.41,3.75-8,8.19-9.49,9l-.1,0A21.2,21.2,0,0,1,41.9,88.08ZM50,76.69a.75.75,0,0,0-.57.25,1.55,1.55,0,0,0-.56,1.17,2.14,2.14,0,0,0,.92,1.28l3.65,2.16.18.14c1.91-1.5,3.47-3.1,3.6-4.25a.85.85,0,0,0-.33-.79c-.2-.17-.67-.56-1-.46-.57.19-1.13,1.58-1.32,2.51a1,1,0,0,1-.93.8,1,1,0,0,1-1-.72,4.09,4.09,0,0,0-2.33-2A1.2,1.2,0,0,0,50,76.69Z"/><path class="cls-1" d="M64.33,102.44h0a1,1,0,0,1-1-1L63.4,73.2a1,1,0,0,1,1-1h0a1,1,0,0,1,1,1l-.07,28.23A1,1,0,0,1,64.33,102.44Z"/><path class="cls-1" d="M98.52,98.29a1,1,0,0,1-.6-.2,1,1,0,0,1-.2-1.4c2.73-3.62,3.77-7.36,3.09-11.1C99.43,78,91.54,72.79,90.65,72.22a86,86,0,0,1-17.28-14c-1.13-1.22-2-2.22-2.66-3a1,1,0,1,1,1.52-1.29c.62.73,1.49,1.7,2.6,2.9a84.56,84.56,0,0,0,16.89,13.7c1.58,1,9.56,6.43,11.06,14.7.78,4.31-.38,8.58-3.46,12.66A1,1,0,0,1,98.52,98.29Z"/><path class="cls-1" d="M94.24,102.52a1,1,0,0,1-1-.84c-2.73-16.76-18.79-24.8-19-24.88A1,1,0,1,1,75.18,75c.7.34,17.15,8.55,20,26.35a1,1,0,0,1-.83,1.15Z"/></g></g></svg>