<svg width="18" height="17" viewBox="0 0 18 17" fill="none" xmlns="http://www.w3.org/2000/svg">
<path d="M16.4972 1.90882e-08H1.48439C0.970333 0.000309011 0.553608 0.41724 0.553711 0.931503V15.9443C0.55402 16.4584 0.970951 16.8751 1.48521 16.875H9.56799V10.3491H7.37622V7.7948H9.56799V5.915C9.56799 3.73508 10.8988 2.54855 12.8434 2.54855C13.7748 2.54855 14.5752 2.61797 14.8085 2.64898V4.92737H13.4676C12.4096 4.92737 12.2047 5.4301 12.2047 6.16796V7.7948H14.7343L14.4047 10.3491H12.2047V16.875H16.4972C17.0116 16.8751 17.4286 16.4583 17.4287 15.9439C17.4287 15.9438 17.4287 15.9437 17.4287 15.9435V0.930679C17.4285 0.416622 17.0115 -0.000102978 16.4972 1.90882e-08Z" fill="#396EAC"/>
</svg>
