<svg width="18" height="18" viewBox="0 0 18 18" fill="none" xmlns="http://www.w3.org/2000/svg">
<g clip-path="url(#clip0)">
<path d="M3.98918 10.8775L3.36262 13.2165L1.07258 13.2649C0.388195 11.9956 0 10.5432 0 8.99986C0 7.50744 0.362953 6.10006 1.00631 4.86084H1.0068L3.04559 5.23462L3.93869 7.26117C3.75177 7.80613 3.64989 8.39113 3.64989 8.99986C3.64996 9.66051 3.76963 10.2935 3.98918 10.8775Z" fill="#FBBB00"/>
<path d="M17.8431 7.31885C17.9465 7.86328 18.0004 8.42553 18.0004 9.00016C18.0004 9.6445 17.9326 10.273 17.8036 10.8793C17.3655 12.9424 16.2207 14.7438 14.6348 16.0187L14.6343 16.0182L12.0664 15.8872L11.7029 13.6184C12.7552 13.0012 13.5776 12.0354 14.0108 10.8793H9.19824V7.31885H14.081H17.8431Z" fill="#518EF8"/>
<path d="M14.6336 16.0183L14.6341 16.0188C13.0917 17.2585 11.1325 18.0003 8.99968 18.0003C5.57227 18.0003 2.59239 16.0846 1.07227 13.2654L3.98886 10.8779C4.74891 12.9064 6.70567 14.3503 8.99968 14.3503C9.98571 14.3503 10.9095 14.0838 11.7021 13.6185L14.6336 16.0183Z" fill="#28B446"/>
<path d="M14.7452 2.07197L11.8296 4.45894C11.0092 3.94615 10.0395 3.64992 9.00052 3.64992C6.65458 3.64992 4.66122 5.16013 3.93925 7.26131L1.00733 4.86098H1.00684C2.5047 1.97307 5.52216 0 9.00052 0C11.1843 0 13.1865 0.777867 14.7452 2.07197Z" fill="#F14336"/>
</g>
<defs>
<clipPath id="clip0">
<rect width="18" height="18" fill="white"/>
</clipPath>
</defs>
</svg>
