<svg width="52" height="52" viewBox="0 0 52 52" fill="none" xmlns="http://www.w3.org/2000/svg">
<path d="M25.9811 51.0999H25.9812H26.1564C26.6648 51.0999 28.2025 51.0511 29.9696 50.5015C31.7368 49.952 33.7398 48.8995 35.1679 46.8881L35.1727 46.8813L35.1763 46.8738C35.2098 46.8048 35.2175 46.7261 35.198 46.6519C35.1785 46.5777 35.1332 46.5129 35.0701 46.4693C35.007 46.4256 34.9304 46.4059 34.8541 46.4138C34.7778 46.4217 34.7068 46.4566 34.654 46.5123L34.6533 46.5116L34.6451 46.5231C33.1691 48.5958 31.026 49.5804 29.2366 50.0464C27.5155 50.4945 26.1308 50.4605 26 50.4573C25.9948 50.4572 25.9916 50.4571 25.9904 50.4571C20.1255 50.4539 14.4568 48.3448 10.016 44.5138C5.57526 40.6828 2.65779 35.3845 1.79468 29.5835C0.931571 23.7824 2.18021 17.8643 5.3133 12.9064C8.44639 7.94849 13.2556 4.28045 18.8655 2.56996C24.4755 0.859481 30.5131 1.22029 35.8794 3.58671C41.2457 5.95313 45.5839 10.1678 48.1042 15.4636C50.6245 20.7593 51.1595 26.784 49.6116 32.441C48.0638 38.098 44.5361 43.0111 39.6707 46.286L39.6701 46.2863C39.6362 46.3095 39.6073 46.3391 39.5848 46.3735C39.5624 46.4078 39.5469 46.4463 39.5394 46.4866L39.6376 46.5051C39.6325 46.5325 39.6328 46.5606 39.6386 46.5879C39.6443 46.6152 39.6554 46.6411 39.6712 46.6641L39.5877 46.7191C39.5878 46.7194 39.588 46.7196 39.5882 46.7199C39.6347 46.7901 39.707 46.8393 39.7894 46.8568C39.8721 46.8743 39.9584 46.8585 40.0296 46.8129L40.0315 46.8116C45.0176 43.45 48.631 38.4099 50.2143 32.6086C51.7976 26.8073 51.2456 20.6304 48.6586 15.2019C46.0715 9.77333 41.6215 5.45399 36.1184 3.02983C30.6152 0.605675 24.4245 0.237837 18.673 1.99325C12.9214 3.74867 7.99127 7.51066 4.77962 12.5947C1.56796 17.6786 0.288297 23.7467 1.17348 29.6947C2.05866 35.6426 5.04985 41.0751 9.60275 45.0036C14.1557 48.9321 19.9676 51.0954 25.9811 51.0999Z" fill="#9B847A" stroke="#9B847A" stroke-width="0.2"/>
<path d="M19.2473 50.1155L19.2337 50.1682C19.1539 50.165 19.0781 50.1322 19.0212 50.0762C19.0177 50.073 19.0142 50.0697 19.0107 50.0665L18.8042 49.9633L18.89 49.9556C15.2381 46.5769 13.6204 43.2934 14.1391 40.181H14.1391C14.5136 37.9019 15.9605 36.1345 17.4083 34.8921C18.8061 33.6925 20.2141 32.9742 20.688 32.7493L20.9085 31.3838C20.4592 31.1149 20.0673 30.7599 19.7554 30.3388C19.4297 29.8992 19.1983 29.397 19.0757 28.8638L19.0737 28.8552L19.0733 28.8465C19.0504 28.4037 19.1373 27.9621 19.3262 27.561C19.5144 27.1613 19.798 26.8141 20.152 26.55C22.3412 24.5666 22.6051 24.3321 23.9973 23.095C24.1543 22.9555 24.3258 22.8031 24.5159 22.6341V19.2695C23.0728 19.452 21.6102 19.1148 20.3914 18.3162L20.3803 18.3089L20.3808 18.3082C19.9227 17.9123 19.5561 17.4216 19.3064 16.87C19.0571 16.3192 18.9303 15.7208 18.9348 15.1163C18.7228 10.275 21.4117 8.48629 21.569 8.38167L21.5702 8.38088C21.9455 8.11205 22.3802 7.93782 22.8373 7.87299C23.295 7.80808 23.7616 7.85479 24.1973 8.00912L24.2082 8.01299L24.2079 8.01359C25.1818 8.49079 25.7391 9.74098 25.8964 11.6746L25.8971 11.6827H25.8968V12.2245C26.4581 12.1229 27.0382 12.191 27.5621 12.4214L27.5699 12.4249L27.5698 12.4252C27.7818 12.541 27.9682 12.6985 28.1176 12.8883C28.2662 13.0769 28.3753 13.2935 28.4383 13.5252C28.5193 13.7486 28.5499 13.9872 28.5279 14.2239C28.5058 14.462 28.431 14.6923 28.3089 14.898L28.3033 14.9075L28.3028 14.9071C27.9627 15.3585 27.4812 15.6814 26.9367 15.8256C26.9945 16.1458 27.0583 16.6691 26.9961 17.1848C26.9276 17.7527 26.702 18.3386 26.1154 18.6093L26.1136 18.6101L26.1136 18.6101C26.0376 18.6433 25.952 18.6468 25.8736 18.6199C25.7952 18.5929 25.7298 18.5375 25.6904 18.4646L25.6882 18.4607L25.6883 18.4606C25.6513 18.3842 25.646 18.2963 25.6736 18.216L25.7682 18.2485L25.6736 18.216C25.7012 18.1357 25.7594 18.0696 25.8356 18.0321L25.8361 18.0319C26.0473 17.9293 26.1843 17.7399 26.2689 17.4993C26.3538 17.2576 26.3828 16.972 26.3817 16.6935C26.3806 16.4159 26.3496 16.1512 26.3181 15.9543C26.3024 15.856 26.2866 15.775 26.2746 15.7184C26.2686 15.69 26.2635 15.6679 26.2599 15.6529L26.2558 15.6365L26.2557 15.636C26.2259 15.5572 26.2263 15.4701 26.2572 15.3916L26.2618 15.3798L26.2692 15.3696C26.3197 15.2995 26.3957 15.2521 26.4808 15.2373M19.2473 50.1155L26.4979 15.3358M19.2473 50.1155C19.2815 50.1042 19.3139 50.0872 19.3429 50.0652C19.3923 50.0278 19.4302 49.9773 19.4523 49.9194C19.4743 49.8614 19.4797 49.7985 19.4677 49.7377C19.4557 49.6769 19.4269 49.6207 19.3845 49.5755L19.3847 49.5753L19.379 49.5701C15.7713 46.2753 14.2155 43.1428 14.687 40.2504C15.0594 38.0031 16.6212 36.2471 18.1104 35.0482C18.8537 34.4497 19.5755 33.9928 20.1149 33.6857C20.3845 33.5321 20.6082 33.4161 20.7658 33.3387C20.8446 33.3 20.9067 33.271 20.9494 33.2519C20.9709 33.2423 20.987 33.2355 20.9977 33.2311L20.998 33.231H20.9997L21.017 33.2244C21.0687 33.2047 21.114 33.1711 21.148 33.1274C21.1814 33.0844 21.2027 33.0332 21.2094 32.9791L21.4951 31.2376L21.4952 31.2366C21.5048 31.1745 21.4959 31.111 21.4697 31.0539C21.4436 30.9967 21.4012 30.9485 21.3479 30.9152L21.3482 30.9148L21.3396 30.9106L21.3393 30.9104C21.3269 30.903 20.9354 30.6704 20.5289 30.2841C20.1152 29.8908 19.7044 29.3554 19.6421 28.7524C19.6363 28.4107 19.7131 28.0727 19.8659 27.7671C20.0194 27.4602 20.2449 27.1951 20.5232 26.9944L20.5235 26.9949L20.5317 26.9875C21.9229 25.7302 22.537 25.1753 23.1536 24.6234C23.6408 24.1873 24.1297 23.753 25.0047 22.9756C25.0377 22.9471 25.0644 22.9119 25.0829 22.8725L24.9925 22.8299L25.083 22.8725C25.1017 22.8327 25.1118 22.7894 25.1126 22.7455L25.1126 22.7455V22.7436V18.8701V18.869H25.0126M19.2473 50.1155L24.7092 18.6082C24.6899 18.6108 24.6619 18.6144 24.626 18.6187C24.5542 18.6272 24.4505 18.638 24.3217 18.6472C24.0639 18.6656 23.706 18.6772 23.301 18.6505C22.4889 18.5969 21.5015 18.3897 20.7502 17.7868M26.4808 15.2373L26.4979 15.3358M26.4808 15.2373C26.4807 15.2373 26.4807 15.2373 26.4806 15.2373L26.4979 15.3358M26.4808 15.2373C26.9686 15.152 27.4099 14.8952 27.725 14.5134M26.4979 15.3358C27.0122 15.246 27.4771 14.9742 27.8078 14.5702M27.725 14.5134C27.7237 14.5158 27.7223 14.5183 27.7209 14.5207L27.8078 14.5702M27.725 14.5134C27.7946 14.3889 27.8371 14.2511 27.8499 14.109C27.863 13.9641 27.8448 13.8181 27.7965 13.6808L27.7939 13.6734L27.7942 13.6733C27.7542 13.5226 27.684 13.3817 27.5877 13.2592C27.4927 13.1382 27.3743 13.0377 27.2396 12.9635C26.7286 12.7637 26.166 12.7388 25.6394 12.8925C25.5978 12.9121 25.5523 12.9223 25.5062 12.9223C25.4566 12.9223 25.4077 12.9105 25.3637 12.8879L25.3538 12.8829L25.3453 12.8758C25.3084 12.8451 25.2787 12.8067 25.2581 12.7633L25.3485 12.7205L25.2581 12.7633C25.2375 12.7199 25.2267 12.6725 25.2263 12.6245L25.2263 12.6237L25.2263 11.7051C25.1574 10.8414 25.0068 10.1489 24.7813 9.62837C24.5571 9.11069 24.2619 8.76969 23.9054 8.59325C23.5686 8.48933 23.2126 8.46299 22.864 8.51626C22.513 8.56991 22.1788 8.70291 21.8869 8.90514L21.8852 8.90635L21.8852 8.90633M27.725 14.5134C27.7268 14.5112 27.7286 14.509 27.7304 14.5068L27.8078 14.5702M27.8078 14.5702L21.8852 8.90633M25.0126 18.869C25.0134 18.8376 25.0072 18.8064 24.9944 18.7777C24.9816 18.749 24.9627 18.7235 24.9388 18.703C24.9105 18.6877 24.8788 18.6796 24.8466 18.6796C24.8144 18.6796 24.7827 18.6877 24.7543 18.703M25.0126 18.869V22.7436V18.869ZM24.7543 18.703V18.603C24.7501 18.603 24.7466 18.6033 24.7458 18.6034L24.7457 18.6034L24.7426 18.6037L24.739 18.6041L24.7318 18.6051L24.7249 18.606C24.7188 18.6088 24.7127 18.6118 24.7067 18.6151L24.7543 18.703ZM24.7543 18.703C24.7536 18.703 24.7489 18.7036 24.7404 18.7048C24.5369 18.7329 22.1737 19.059 20.6861 17.8635M20.6861 17.8635L20.7516 17.788C20.7511 17.7876 20.7507 17.7872 20.7502 17.7868M20.6861 17.8635L20.7487 17.7856C20.7492 17.786 20.7497 17.7864 20.7502 17.7868M20.6861 17.8635C20.2904 17.52 19.974 17.0946 19.759 16.6167C19.544 16.1389 19.4354 15.62 19.4407 15.096L20.7502 17.7868M20.7502 17.7868C20.3661 17.4529 20.059 17.0397 19.8502 16.5757C19.6411 16.111 19.5355 15.6065 19.5407 15.097L19.5408 15.097L19.5406 15.0915C19.44 12.8338 20.0317 11.2855 20.6441 10.3034C20.9506 9.8119 21.2629 9.46126 21.4976 9.23412C21.615 9.12055 21.713 9.03789 21.7811 8.98396C21.8151 8.957 21.8417 8.93723 21.8595 8.92438C21.8684 8.91796 21.8751 8.91326 21.8794 8.91027L21.8841 8.90704L21.8851 8.90637L21.8852 8.90633M20.7502 17.7868L21.8852 8.90633M19.5422 28.7583C19.6713 30.0406 21.2765 30.9908 21.2949 31L20.4647 26.9133C20.1733 27.1234 19.9371 27.401 19.7765 27.7224C19.6158 28.0437 19.5354 28.3991 19.5422 28.7583Z" fill="#9B847A" stroke="#9B847A" stroke-width="0.2"/>
<path d="M26.2239 22.594L26.2239 22.5938C26.2056 22.5565 26.1949 22.5159 26.1925 22.4743C26.1901 22.4328 26.1961 22.3912 26.21 22.352C26.2239 22.3129 26.2455 22.2768 26.2735 22.2461C26.3015 22.2154 26.3353 22.1906 26.373 22.1732M26.2239 22.594L26.4151 22.2639M26.2239 22.594C26.2614 22.6702 26.3275 22.7284 26.4078 22.756C26.4876 22.7834 26.575 22.7784 26.651 22.742C27.1796 22.5048 27.7552 22.3912 28.3343 22.4099C28.9131 22.4286 29.48 22.5789 29.9919 22.8494C30.8635 23.3597 31.5662 24.3116 32.0779 25.6821C32.5895 27.0525 32.9066 28.8327 33.0125 30.9842C33.0133 31.1579 33.0714 38.3949 33.5756 42.7892M26.2239 22.594L33.5756 42.7892M26.373 22.1732C26.373 22.1731 26.3731 22.1731 26.3732 22.1731L26.4151 22.2639M26.373 22.1732C26.3729 22.1732 26.3728 22.1732 26.3728 22.1733L26.4151 22.2639M26.373 22.1732C26.9928 21.8834 27.6721 21.7436 28.356 21.7649C29.0399 21.7862 29.7093 21.9682 30.3099 22.296L30.3125 22.2974L30.3125 22.2975C31.316 22.8844 32.0937 23.9142 32.6478 25.3623C33.2018 26.8102 33.535 28.6829 33.646 30.9675L33.6462 30.9723H33.6461C33.6461 31.0462 33.7108 38.3473 34.2082 42.7323L34.2095 42.7435H34.2089C34.2089 42.7438 34.2089 42.7446 34.209 42.7459C34.2093 42.751 34.21 42.7637 34.2116 42.7855C34.2137 42.8141 34.217 42.8552 34.222 42.9071C34.232 43.011 34.2487 43.1581 34.2752 43.3357C34.3283 43.6913 34.4207 44.1675 34.5778 44.6633C34.8944 45.6624 35.4622 46.7051 36.4645 47.0396M26.4151 22.2639C27.0208 21.9807 27.6846 21.844 28.3529 21.8649C29.0211 21.8857 29.6751 22.0635 30.262 22.3838C32.2177 23.5277 33.3247 26.4151 33.5461 30.9723C33.5461 31.0461 33.6107 38.3524 34.1088 42.7435C34.1088 42.7897 34.3302 46.4336 36.4336 47.1347M36.4645 47.0396C36.4643 47.0395 36.4641 47.0394 36.4639 47.0394L36.4336 47.1347M36.4645 47.0396C36.4647 47.0396 36.4649 47.0397 36.4652 47.0398L36.4336 47.1347M36.4645 47.0396C37.1502 47.2577 38.1936 47.1794 39.743 46.2082C41.2932 45.2364 43.3376 43.378 46.0144 40.0608L46.0229 40.0503L46.0235 40.051C46.0832 39.9945 46.1622 39.963 46.2444 39.963C46.3266 39.963 46.4057 39.9945 46.4654 40.051L46.4672 40.0528C46.4972 40.0826 46.521 40.1181 46.5372 40.1572C46.5534 40.1962 46.5618 40.2381 46.5618 40.2804C46.5618 40.3227 46.5534 40.3646 46.5372 40.4037C46.5217 40.4409 46.4994 40.4749 46.4714 40.5038C44.5238 42.9218 42.7759 44.7374 41.2289 45.9495C39.6833 47.1605 38.326 47.7789 37.1623 47.7789M36.4336 47.1347L37.1623 47.6789M37.1623 47.7789V47.6789M37.1623 47.7789C37.1625 47.7789 37.1626 47.7789 37.1628 47.7789L37.1623 47.6789M37.1623 47.7789C36.8571 47.7802 36.5537 47.7318 36.264 47.6356M37.1623 47.6789C36.8677 47.6802 36.5748 47.6335 36.2952 47.5406M36.264 47.6356C36.2641 47.6356 36.2642 47.6357 36.2643 47.6357L36.2952 47.5406M36.264 47.6356C35.0222 47.2327 34.3554 46.039 33.9978 44.9566C33.6433 43.884 33.5818 42.8897 33.5757 42.7902L33.5756 42.7892M36.264 47.6356C36.2639 47.6355 36.2638 47.6355 36.2637 47.6355L36.2952 47.5406M36.2952 47.5406L33.5756 42.7892" fill="#9B847A" stroke="#9B847A" stroke-width="0.2"/>
<path d="M23.736 33.8252C23.5841 33.6398 23.3912 33.4907 23.1715 33.3904L23.1716 33.3901L23.1644 33.3875C22.9159 33.2963 22.6418 33.305 22.3996 33.4118C22.1629 33.5162 21.9748 33.7063 21.8728 33.9435C21.7199 34.1142 21.6049 34.3154 21.5354 34.5339C21.4641 34.7579 21.4423 34.9948 21.4717 35.2281L21.4714 35.2282L21.4729 35.2358C21.5103 35.4172 21.583 35.5896 21.6869 35.7429C21.7908 35.8962 21.9239 36.0276 22.0786 36.1294L22.0785 36.1296L22.084 36.1327L23.6102 37.0049C23.1473 37.3352 22.665 37.6376 22.1659 37.9104C21.037 38.328 19.8354 38.5133 18.6331 38.4553C17.262 38.3838 15.9218 38.0211 14.7018 37.3914C13.4816 36.7617 12.4096 35.8793 11.5571 34.803L11.5571 34.803L11.5545 34.7999C9.44694 32.3517 9.67182 29.5255 10.4477 27.279C11.2241 25.0313 12.5466 23.3839 12.597 23.325C12.7202 23.1814 15.2671 19.9969 15.656 13.3396L15.656 13.3395C15.8753 9.49692 17.7012 7.56439 19.5048 6.58708C21.3156 5.6059 23.1133 5.58325 23.2683 5.58325V5.5834L23.2738 5.58309C24.9332 5.49124 26.57 6.00123 27.8835 7.01934C29.5702 8.37086 30.5955 10.5721 30.9265 13.5508L30.9265 13.5529L30.9262 13.5716C30.9262 13.5784 30.9261 13.5863 30.926 13.5954C30.9259 13.6076 30.9258 13.6219 30.9258 13.6382C30.9256 13.695 30.9261 13.776 30.9285 13.8783C30.9333 14.0829 30.9458 14.3725 30.9766 14.723C31.0381 15.4235 31.1728 16.3688 31.4657 17.3645C32.0509 19.3534 33.2745 21.5641 35.8293 22.4048L35.8311 22.4054C36.0331 22.4675 36.2279 22.5305 36.4235 22.5938C36.6858 22.6787 36.9496 22.7641 37.2338 22.8483C39.8583 23.6569 43.1365 24.6685 45.4066 26.8196C46.5392 27.8929 47.4201 29.2497 47.8421 31.0084C48.2643 32.7682 48.2284 34.9367 47.5166 37.6348L47.5165 37.6348L47.5154 37.6398C47.4985 37.7202 47.5122 37.804 47.5538 37.8749C47.5953 37.9459 47.6618 37.9987 47.7403 38.0233L47.7402 38.0234L47.7458 38.0248C47.8274 38.0453 47.9139 38.0329 47.9865 37.9904C48.0591 37.9478 48.1121 37.8784 48.1342 37.7972L48.1344 37.7964C48.8779 34.9683 48.9042 32.6757 48.4393 30.8027C47.9742 28.9289 47.019 27.4815 45.8103 26.3422C43.3979 24.0681 39.9728 23.0202 37.4215 22.2419C37.4214 22.2419 37.4212 22.2419 37.4211 22.2418L36.0303 21.8089C36.03 21.8088 36.0297 21.8087 36.0294 21.8086C33.7191 21.0441 32.5995 19.0146 32.0579 17.1413C31.5351 15.3331 31.5579 13.6928 31.5601 13.5382C31.5601 13.5328 31.5602 13.5292 31.5602 13.5275H31.5608L31.5596 13.5167C31.2166 10.3554 30.1484 7.99181 28.2749 6.52101C26.847 5.39315 25.0523 4.83349 23.2364 4.94973C21.0493 4.994 18.9655 5.88952 17.4282 7.446C15.891 9.00242 15.0214 11.097 15.0041 13.2844C14.8201 16.5137 14.1082 18.9048 13.4357 20.495C13.0993 21.2904 12.7727 21.8855 12.5269 22.2851C12.404 22.4848 12.3012 22.6356 12.2276 22.738C12.1908 22.7893 12.1614 22.8283 12.1404 22.8552C12.1231 22.8773 12.1134 22.8888 12.1102 22.8927C12.1092 22.8938 12.1088 22.8943 12.109 22.8941C12.1023 22.9008 12.091 22.9146 12.0805 22.9275C12.0679 22.9432 12.0505 22.9651 12.0288 22.9931C11.9854 23.049 11.9245 23.1294 11.8501 23.2322C11.7011 23.4377 11.4973 23.7333 11.2689 24.1023C10.8124 24.8401 10.2566 25.8735 9.84467 27.0708C9.02136 29.4641 8.76884 32.5296 11.0602 35.1871C12.0104 36.3863 13.217 37.3575 14.5915 38.0294C15.9666 38.7016 17.4747 39.0573 19.0053 39.0703C19.0053 39.0703 19.0054 39.0703 19.0055 39.0703L19.0063 38.9703L23.736 33.8252ZM23.736 33.8252C23.7744 33.7248 23.8266 33.6299 23.8913 33.5432C23.9999 33.3979 24.1407 33.2798 24.3027 33.1983L24.3099 33.1947L24.3175 33.1923C24.7345 33.0606 25.1618 33.3245 25.6059 33.8793C25.7493 34.0515 25.8508 34.2547 25.9023 34.4728C25.9538 34.6908 25.954 34.9178 25.9028 35.136L23.736 33.8252ZM22.8071 33.9413V33.9411C22.7272 33.9411 22.5777 33.9831 22.377 34.2275L22.3722 34.2332L22.372 34.233C22.2724 34.3374 22.1962 34.4618 22.1484 34.5979C22.1015 34.7318 22.083 34.8739 22.0943 35.0152C22.1414 35.2076 22.2563 35.3766 22.4181 35.491L24.0192 36.4113L24.023 36.4134L24.0229 36.4135C24.0721 36.4447 24.1119 36.4886 24.138 36.5405C24.6718 36.1462 25.0778 35.6019 25.3031 34.9754C25.3306 34.8526 25.3296 34.7251 25.3 34.6028C25.2701 34.4786 25.2115 34.3631 25.1291 34.2654L25.1275 34.2634L25.1275 34.2634C24.9827 34.0823 24.8504 33.9489 24.7402 33.8673C24.685 33.8265 24.6386 33.801 24.6016 33.788C24.5683 33.7763 24.5483 33.7766 24.5377 33.7789C24.5357 33.7804 24.53 33.785 24.5209 33.7956C24.5058 33.8133 24.4875 33.8401 24.4671 33.8767C24.4263 33.9495 24.3826 34.0504 24.3417 34.1671C24.2608 34.3976 24.1951 34.6762 24.1806 34.8979C24.1848 34.9309 24.1844 34.9644 24.1794 34.9973C24.1756 35.037 24.1642 35.0755 24.1459 35.1109C24.127 35.1475 24.101 35.18 24.0695 35.2065L24.0051 35.1299L24.0695 35.2065C24.0379 35.233 24.0015 35.253 23.9621 35.2653C23.923 35.2776 23.8818 35.2821 23.8409 35.2784M22.8071 33.9413L23.6465 34.9481M22.8071 33.9413L22.8123 33.941C22.8563 33.9387 22.9003 33.9427 22.9432 33.9528M22.8071 33.9413L22.9432 33.9528M23.8409 35.2784C23.7581 35.2715 23.6813 35.2328 23.6264 35.1704C23.572 35.1086 23.5435 35.0283 23.5465 34.9461M23.8409 35.2784C23.841 35.2784 23.8411 35.2784 23.8413 35.2784L23.8495 35.1788L23.8405 35.2784C23.8406 35.2784 23.8407 35.2784 23.8409 35.2784ZM23.5465 34.9461C23.5466 34.9453 23.5466 34.9445 23.5466 34.9436L23.6465 34.9481M23.5465 34.9461V34.9461V34.9462V34.9462V34.9462V34.9463V34.9463V34.9464V34.9464V34.9464V34.9465V34.9465V34.9465V34.9466V34.9466V34.9466V34.9466V34.9467V34.9467V34.9467V34.9468V34.9468V34.9468V34.9469V34.9469V34.9469V34.9469V34.947V34.947V34.947V34.947V34.9471V34.9471V34.9471V34.9471V34.9472V34.9472V34.9472V34.9472V34.9472V34.9473V34.9473V34.9473V34.9473V34.9474V34.9474V34.9474V34.9474V34.9474V34.9474V34.9475V34.9475V34.9475V34.9475V34.9475V34.9476V34.9476V34.9476V34.9476V34.9476V34.9476V34.9476V34.9477V34.9477V34.9477V34.9477V34.9478V34.9478V34.9478V34.9478V34.9479V34.9479V34.9479V34.9479V34.9479V34.9479V34.948V34.948V34.948V34.948V34.948V34.9481V34.9481V34.9481V34.9481V34.9481V34.9481L23.6465 34.9481M23.5465 34.9461V34.9461V34.946V34.946V34.9459V34.9459V34.9459V34.9458V34.9458V34.9457V34.9457V34.9457V34.9456V34.9456V34.9455V34.9455V34.9454V34.9454V34.9453V34.9453V34.9452V34.9452V34.9451V34.9451V34.945V34.945V34.9449V34.9449V34.9448V34.9448V34.9447V34.9447V34.9446V34.9446V34.9445V34.9445V34.9444V34.9444V34.9443V34.9442V34.9442V34.9441V34.9441V34.944V34.9439V34.9439V34.9438V34.9438V34.9437V34.9436V34.9436V34.9435V34.9434V34.9434V34.9433V34.9432V34.9432V34.9431V34.943V34.9429V34.9429V34.9428V34.9427V34.9427V34.9426V34.9425V34.9424V34.9424V34.9423V34.9422V34.9421V34.9421V34.942V34.9419V34.9418V34.9417V34.9417V34.9416V34.9415V34.9414V34.9413V34.9412V34.9412V34.9411V34.941V34.9409V34.9408V34.9407V34.9406V34.9405V34.9404V34.9404V34.9403V34.9402V34.9401V34.94V34.9399V34.9398V34.9397V34.9396V34.9395V34.9394V34.9393V34.9392V34.9391V34.939V34.9389V34.9388V34.9387V34.9386V34.9385V34.9384V34.9382V34.9381V34.938V34.9379V34.9378V34.9377V34.9376V34.9375V34.9374V34.9372V34.9371V34.937V34.9369V34.9368V34.9366V34.9365V34.9364V34.9363V34.9362V34.936V34.9359V34.9358V34.9357V34.9355V34.9354V34.9353V34.9352V34.935V34.9349V34.9348V34.9346V34.9345V34.9344V34.9342V34.9341V34.9339V34.9338V34.9337V34.9335V34.9334V34.9332V34.9331V34.933V34.9328V34.9327V34.9325V34.9324V34.9322V34.9321V34.9319V34.9318V34.9316V34.9315V34.9313V34.9312V34.931V34.9309V34.9307V34.9305V34.9304V34.9302V34.9301V34.9299V34.9297V34.9296V34.9294V34.9292V34.9291V34.9289V34.9287V34.9286V34.9284V34.9282V34.928V34.9279V34.9277V34.9275V34.9273V34.9272V34.927V34.9268V34.9266V34.9264V34.9263V34.9261V34.9259V34.9257V34.9255V34.9253V34.9251V34.9249V34.9247V34.9246V34.9244V34.9242V34.924V34.9238V34.9236V34.9234V34.9232V34.923V34.9228V34.9226V34.9224V34.9222V34.922V34.9217V34.9215V34.9213V34.9211V34.9209V34.9207V34.9205V34.9203V34.92V34.9198V34.9196V34.9194V34.9192V34.9189V34.9187V34.9185V34.9183V34.918V34.9178V34.9176V34.9174V34.9171V34.9169V34.9167V34.9164V34.9162V34.9159V34.9157V34.9155V34.9152V34.915V34.9147V34.9145V34.9142V34.914V34.9138V34.9135V34.9133V34.913V34.9128V34.9125V34.9122V34.912V34.9117V34.9115V34.9112V34.9109V34.9107V34.9104V34.9102V34.9099V34.9096V34.9094V34.9091V34.9088V34.9085V34.9083V34.908V34.9077V34.9074V34.9072V34.9069V34.9066V34.9063V34.906V34.9057V34.9055V34.9052V34.9049V34.9046V34.9043V34.904V34.9037V34.9034V34.9031V34.9028V34.9025V34.9022V34.9019V34.9016V34.9013V34.901V34.9007V34.9004V34.9001V34.8998V34.8995V34.8991V34.8988V34.8985V34.8982V34.8979V34.8976V34.8972V34.8969V34.8966V34.8963V34.8959V34.8956V34.8953V34.8949V34.8946V34.8943V34.8939V34.8936V34.8933V34.8929V34.8926V34.8922V34.8919V34.8915V34.8912V34.8908V34.8905V34.8901V34.8898M23.6465 34.9481V34.8836M23.5465 34.8898C23.5468 34.8918 23.547 34.8937 23.5473 34.8957L23.6465 34.8836M23.5465 34.8898C23.522 34.6971 23.4544 34.5124 23.3487 34.3494C23.2445 34.1888 23.106 34.0533 22.9432 33.9528M23.5465 34.8898V34.8894V34.8891V34.8887V34.8884V34.888V34.8876V34.8873V34.8869V34.8865V34.8862V34.8858V34.8854V34.8851V34.8847V34.8843V34.8839V34.8836H23.6465M23.6465 34.8836L22.9432 33.9528M24.0709 36.7101C24.1042 36.6878 24.137 36.6649 24.1694 36.6415L24.0553 36.5997C24.0698 36.6346 24.0752 36.6725 24.0709 36.7101Z" fill="#9B847A" stroke="#9B847A" stroke-width="0.2"/>
<path d="M29.0961 45.2124L29.0254 45.1417L29.0961 45.2124C29.126 45.1826 29.1496 45.1472 29.1658 45.1082C29.182 45.0692 29.1903 45.0274 29.1903 44.9852V32.6789C29.1903 32.5937 29.1564 32.5119 29.0961 32.4517C29.0359 32.3914 28.9541 32.3575 28.8689 32.3575C28.7836 32.3575 28.7019 32.3914 28.6416 32.4517C28.5813 32.5119 28.5475 32.5937 28.5475 32.6789V44.9852C28.5475 45.0704 28.5813 45.1522 28.6416 45.2124L28.6416 45.2124C28.7019 45.2727 28.7836 45.3066 28.8689 45.3066C28.9111 45.3066 28.9529 45.2983 28.9919 45.2821C29.0309 45.266 29.0663 45.2423 29.0961 45.2124Z" fill="#9B847A" stroke="#9B847A" stroke-width="0.2"/>
<path d="M43.5628 43.4276L43.5816 43.4489L43.6088 43.4572C43.6651 43.4744 43.7249 43.4757 43.7818 43.4613C43.8221 43.4596 43.8617 43.4503 43.8987 43.4339C43.9402 43.4154 43.9774 43.3883 44.0077 43.3544L44.0078 43.3545L44.0102 43.3516C44.6297 42.6043 45.0822 41.7331 45.3374 40.7965C45.5925 39.8599 45.6444 38.8795 45.4895 37.9213L45.4895 37.9212L45.4891 37.9189C44.9743 35.1485 42.5577 32.7854 40.703 31.5984L40.703 31.5984L40.7015 31.5974C37.9994 29.9351 35.5253 27.928 33.3416 25.6267C32.8538 25.1113 32.4766 24.6882 32.201 24.3666L32.2012 24.3664L32.1959 24.3611C32.1661 24.3311 32.1306 24.3074 32.0915 24.2911C32.0524 24.2749 32.0106 24.2666 31.9683 24.2666C31.926 24.2666 31.8841 24.2749 31.845 24.2911C31.8062 24.3073 31.7709 24.3308 31.7412 24.3605C31.7115 24.3895 31.6879 24.4241 31.6717 24.4623C31.6555 24.5008 31.6471 24.5421 31.6471 24.5839C31.6471 24.6257 31.6555 24.667 31.6717 24.7055C31.6864 24.7401 31.7071 24.7718 31.733 24.799C31.8532 24.9844 32.0224 25.1786 32.2183 25.3869C32.3181 25.4932 32.4259 25.6042 32.5388 25.7204L32.5411 25.7228C32.6535 25.8384 32.7711 25.9594 32.8919 26.0871L32.8921 26.0874C35.1255 28.433 37.6566 30.476 40.4207 32.1641C41.2984 32.7264 42.3071 33.5637 43.1541 34.5799C44.0016 35.5966 44.6826 36.787 44.914 38.0556C45.0548 38.9273 45.0069 39.8191 44.7737 40.6707C44.5404 41.5223 44.1272 42.3139 43.5619 42.9922C43.5095 43.0523 43.4806 43.1295 43.4806 43.2093C43.4806 43.2897 43.5098 43.3672 43.5628 43.4276Z" fill="#9B847A" stroke="#9B847A" stroke-width="0.2"/>
<path d="M41.6917 45.022C41.7005 45.0741 41.7277 45.1214 41.7683 45.1552C41.8089 45.1891 41.8603 45.2073 41.9131 45.2065M41.6917 45.022L33.2568 34.1394L33.2521 34.1381L33.2435 34.1339C33.1674 34.0964 33.1091 34.0303 33.0815 33.95C33.054 33.87 33.0592 33.7824 33.0958 33.7062C33.1133 33.6688 33.138 33.6352 33.1685 33.6074C33.1992 33.5793 33.2352 33.5577 33.2744 33.5438C33.3136 33.5299 33.3552 33.524 33.3967 33.5264C33.4348 33.5286 33.472 33.5377 33.5067 33.5533C33.5106 33.5545 33.5143 33.5559 33.5172 33.557C33.5241 33.5597 33.5322 33.5632 33.541 33.5671C33.5586 33.5751 33.5826 33.5866 33.6122 33.6013C33.6716 33.631 33.7557 33.675 33.8614 33.7334C34.0728 33.8504 34.3712 34.0255 34.7309 34.2593C35.4501 34.7269 36.4149 35.4298 37.4175 36.3721C39.4219 38.256 41.5822 41.1017 42.2238 44.94C42.2313 44.9807 42.2307 45.0225 42.222 45.0629C42.2132 45.1038 42.1962 45.1424 42.1722 45.1766C42.1481 45.2108 42.1174 45.2398 42.082 45.2619C42.0465 45.284 42.007 45.2988 41.9657 45.3053L41.9579 45.3065H41.95H41.9137H41.9131V45.2065M41.6917 45.022C40.4648 37.642 33.3892 34.0719 33.2877 34.0442L41.6917 45.022ZM41.9131 45.2065H41.95H41.9131Z" fill="#9B847A" stroke="#9B847A" stroke-width="0.2"/>
</svg>
