<svg width="60" height="60" viewBox="0 0 60 60" fill="none" xmlns="http://www.w3.org/2000/svg">
<g clip-path="url(#clip0)">
<path d="M46.3816 26.3325H43.1435C42.953 26.3325 42.7626 26.523 42.6673 26.7135L41.334 35.0945C41.334 35.2849 41.4292 35.3802 41.6197 35.3802H43.334C43.5245 35.3802 43.6197 35.2849 43.6197 35.0945L44.0006 32.7135C44.0006 32.523 44.1911 32.3325 44.4768 32.3325H45.5245C47.7149 32.3325 48.953 31.2849 49.2387 29.1897C49.4292 28.3325 49.2387 27.5706 48.8578 27.0944C48.2864 26.6182 47.4292 26.3325 46.3816 26.3325ZM46.7626 29.4754C46.5721 30.6182 45.7149 30.6182 44.8578 30.6182H44.2864L44.6673 28.4278C44.6673 28.3325 44.7626 28.2373 44.953 28.2373H45.1435C45.7149 28.2373 46.2864 28.2373 46.5721 28.6182C46.7626 28.7135 46.7626 28.9992 46.7626 29.4754Z" fill="#139AD6"/>
<path d="M23.0496 26.3325H19.8115C19.621 26.3325 19.4305 26.523 19.3353 26.7135L18.002 35.0945C18.002 35.2849 18.0972 35.3802 18.2877 35.3802H19.8115C20.002 35.3802 20.1924 35.1897 20.2877 34.9992L20.6686 32.7135C20.6686 32.523 20.8591 32.3325 21.1448 32.3325H22.1924C24.3829 32.3325 25.621 31.2849 25.9067 29.1897C26.0972 28.3325 25.9067 27.5706 25.5258 27.0944C24.9543 26.6182 24.1924 26.3325 23.0496 26.3325ZM23.4305 29.4754C23.24 30.6182 22.3829 30.6182 21.5258 30.6182H21.0496L21.4305 28.4278C21.4305 28.3325 21.5258 28.2373 21.7162 28.2373H21.9067C22.4781 28.2373 23.0496 28.2373 23.3353 28.6182C23.4305 28.7135 23.5258 28.9992 23.4305 29.4754Z" fill="#263B80"/>
<path d="M32.8578 29.3799H31.334C31.2388 29.3799 31.0483 29.4752 31.0483 29.5704L30.953 30.0466L30.8578 29.8561C30.4769 29.3799 29.8102 29.1895 29.0483 29.1895C27.334 29.1895 25.8102 30.5228 25.5245 32.3323C25.334 33.2847 25.6197 34.1419 26.0959 34.7133C26.5721 35.2847 27.2388 35.4752 28.0959 35.4752C29.5245 35.4752 30.2864 34.6181 30.2864 34.6181L30.1911 35.0942C30.1911 35.2847 30.2864 35.38 30.4769 35.38H31.9054C32.0959 35.38 32.2864 35.1895 32.3816 34.999L33.2388 29.6656C33.1435 29.5704 32.953 29.3799 32.8578 29.3799ZM30.6673 32.4276C30.4769 33.2847 29.8102 33.9514 28.8578 33.9514C28.3816 33.9514 28.0007 33.7609 27.8102 33.5704C27.6197 33.2847 27.5245 32.9038 27.5245 32.4276C27.6197 31.5704 28.3816 30.9037 29.2388 30.9037C29.715 30.9037 30.0007 31.0942 30.2864 31.2847C30.5721 31.5704 30.6673 32.0466 30.6673 32.4276Z" fill="#263B80"/>
<path d="M56.0942 29.3809H54.5704C54.4751 29.3809 54.2847 29.4761 54.2847 29.5714L54.1894 30.0476L54.0942 29.8571C53.7132 29.3809 53.0466 29.1904 52.2847 29.1904C50.5704 29.1904 49.0466 30.5238 48.7608 32.3333C48.5704 33.2857 48.8561 34.1428 49.3323 34.7143C49.8085 35.2857 50.4751 35.4762 51.3323 35.4762C52.7608 35.4762 53.5228 34.619 53.5228 34.619L53.4275 35.0952C53.4275 35.2857 53.5228 35.3809 53.7132 35.3809H55.1418C55.3323 35.3809 55.5228 35.1905 55.618 35L56.4751 29.6666C56.3799 29.5714 56.2847 29.3809 56.0942 29.3809ZM53.9037 32.4285C53.7132 33.2857 53.0466 33.9524 52.0942 33.9524C51.618 33.9524 51.237 33.7619 51.0466 33.5714C50.8561 33.2857 50.7608 32.9047 50.7608 32.4285C50.8561 31.5714 51.618 30.9047 52.4751 30.9047C52.9513 30.9047 53.237 31.0952 53.5228 31.2857C53.9037 31.5714 53.9989 32.0476 53.9037 32.4285Z" fill="#139AD6"/>
<path d="M41.142 29.3813H39.5229C39.3324 29.3813 39.2372 29.4766 39.1419 29.5718L37.0467 32.8099L36.0943 29.7623C35.9991 29.5718 35.9038 29.4766 35.6181 29.4766H34.0943C33.9038 29.4766 33.8086 29.6671 33.8086 29.8575L35.5229 34.9051L33.9038 37.1908C33.8086 37.3813 33.9038 37.667 34.0943 37.667H35.6181C35.8086 37.667 35.9038 37.5718 35.9991 37.4766L41.2372 29.9528C41.5229 29.6671 41.3324 29.3813 41.142 29.3813Z" fill="#263B80"/>
<path d="M57.9056 26.6185L56.5723 35.1899C56.5723 35.3804 56.6675 35.4756 56.858 35.4756H58.1913C58.3818 35.4756 58.5723 35.2851 58.6675 35.0947L60.0008 26.7137C60.0008 26.5232 59.9056 26.428 59.7151 26.428H58.1913C58.0961 26.3327 58.0008 26.428 57.9056 26.6185Z" fill="#139AD6"/>
<path d="M10.9524 23.4764C10.2857 22.7144 9.04762 22.3335 7.33333 22.3335H2.57143C2.28571 22.3335 2 22.6192 1.90476 22.9049L0 35.3811C0 35.6668 0.190476 35.8573 0.380952 35.8573H3.33333L4.09524 31.1906V31.3811C4.19048 31.0954 4.47619 30.8097 4.76191 30.8097H6.19048C8.95238 30.8097 11.0476 29.6668 11.7143 26.524C11.7143 26.4287 11.7143 26.3335 11.7143 26.2383C11.619 26.2383 11.619 26.2383 11.7143 26.2383C11.8095 25.0002 11.619 24.2383 10.9524 23.4764Z" fill="#263B80"/>
<path d="M11.6183 26.2373C11.6183 26.3325 11.6183 26.4278 11.6183 26.523C10.9516 29.7611 8.8564 30.8087 6.09449 30.8087H4.66592C4.38021 30.8087 4.09449 31.0944 3.99926 31.3802L3.04688 37.1897C3.04688 37.3802 3.14211 37.5706 3.42783 37.5706H5.90402C6.18973 37.5706 6.47545 37.3802 6.47545 37.0944V36.9992L6.95164 34.0468V33.8564C6.95164 33.5706 7.23735 33.3802 7.52307 33.3802H7.90402C10.285 33.3802 12.1897 32.4278 12.6659 29.5706C12.8564 28.4278 12.7612 27.3802 12.1897 26.7135C12.0945 26.523 11.904 26.3325 11.6183 26.2373Z" fill="#139AD6"/>
<path d="M10.9509 25.9532C10.8557 25.9532 10.7604 25.858 10.6652 25.858C10.5699 25.858 10.4747 25.858 10.3795 25.7627C9.99851 25.6675 9.61756 25.6675 9.14137 25.6675H5.42708C5.33184 25.6675 5.23661 25.6675 5.14137 25.7627C4.95089 25.858 4.85565 26.0484 4.85565 26.2389L4.09375 31.1913V31.3818C4.18899 31.0961 4.4747 30.8103 4.76042 30.8103H6.18899C8.95089 30.8103 11.0461 29.6675 11.7128 26.5246C11.7128 26.4294 11.7128 26.3341 11.808 26.2389C11.6176 26.1437 11.5223 26.0484 11.3318 26.0484C11.0461 25.9532 11.0461 25.9532 10.9509 25.9532Z" fill="#232C65"/>
</g>
<defs>
<clipPath id="clip0">
<rect width="60" height="60" fill="white"/>
</clipPath>
</defs>
</svg>
