<svg width="22" height="22" viewBox="0 0 22 22" fill="none" xmlns="http://www.w3.org/2000/svg">
<path d="M12.1453 16.6919H8.94868V7.10238H12.1453V8.70063C12.8266 7.83378 13.8599 7.317 14.9622 7.29177C16.9446 7.30277 18.5442 8.9159 18.5384 10.8982V16.6919H15.3418V11.2978C15.214 10.4049 14.4482 9.74235 13.5462 9.74429C13.1516 9.75676 12.7792 9.92951 12.5148 10.2227C12.2505 10.5158 12.117 10.9041 12.1453 11.2978V16.6919ZM7.35039 16.6919H4.15381V7.10238H7.35039V16.6919ZM5.7521 5.50412C4.86939 5.50412 4.15381 4.78856 4.15381 3.90587C4.15381 3.02318 4.86939 2.30762 5.7521 2.30762C6.63481 2.30762 7.35039 3.02318 7.35039 3.90587C7.35039 4.32975 7.182 4.73628 6.88226 5.03601C6.58252 5.33574 6.17599 5.50412 5.7521 5.50412Z" fill="#726364"/>
</svg>
