<svg width="22" height="22" viewBox="0 0 22 22" fill="none" xmlns="http://www.w3.org/2000/svg">
<path d="M17.1154 7.01834C17.801 6.61462 18.3141 5.97891 18.5587 5.22992C17.9144 5.60644 17.2095 5.87167 16.4744 6.01414C15.4552 4.95233 13.8405 4.69394 12.5324 5.38334C11.2244 6.07274 10.5468 7.53926 10.8784 8.96345C8.23923 8.83295 5.78037 7.60512 4.11369 5.58549C3.24388 7.0631 3.68837 8.95199 5.12947 9.90211C4.60835 9.88561 4.09879 9.74665 3.64328 9.49681C3.64328 9.51037 3.64328 9.52393 3.64328 9.53749C3.64358 11.0767 4.74501 12.4025 6.27681 12.7075C5.79344 12.837 5.28643 12.8561 4.79444 12.7633C5.22523 14.0796 6.45698 14.9813 7.8609 15.0082C6.69814 15.907 5.26216 16.3945 3.78402 16.3921C3.52202 16.3925 3.26022 16.3776 3 16.3476C4.50102 17.2976 6.24802 17.8019 8.03224 17.8001C10.5145 17.8169 12.9001 16.8531 14.6553 15.1242C16.4105 13.3954 17.3889 11.0459 17.3716 8.60109C17.3716 8.46097 17.3683 8.32161 17.3617 8.18299C18.0045 7.72542 18.5593 7.15857 19.0001 6.50908C18.4012 6.77054 17.7659 6.94219 17.1154 7.01834Z" fill="#726364"/>
</svg>
