<svg width="22" height="22" viewBox="0 0 22 22" fill="none" xmlns="http://www.w3.org/2000/svg">
<path d="M18.527 2.53943H3.47261C2.95711 2.53943 2.53857 2.95713 2.53857 3.47348V18.528C2.53857 19.0444 2.95711 19.4626 3.47261 19.4626H11.5774V12.909H9.3722V10.3546H11.5774V8.47086C11.5774 6.28538 12.9119 5.09469 14.8619 5.09469C15.7968 5.09469 16.5984 5.16463 16.8322 5.195V7.47941L15.4797 7.47997C14.4194 7.47997 14.2149 7.98405 14.2149 8.72332V10.3537H16.7445L16.4137 12.9079H14.2146V19.4618H18.5267C19.0428 19.4618 19.4616 19.043 19.4616 18.528V3.47292C19.4613 2.95713 19.043 2.53943 18.527 2.53943Z" fill="#726364"/>
</svg>
