<svg width="26" height="26" viewBox="0 0 26 26" fill="none" xmlns="http://www.w3.org/2000/svg">
<g clip-path="url(#clip0)">
<path d="M23.9794 10.2436C24.4502 9.78465 24.6164 9.11114 24.4133 8.48587C24.2101 7.8606 23.6798 7.41347 23.0292 7.31896L17.3401 6.4923C17.2285 6.4761 17.1319 6.40597 17.082 6.30471L14.5378 1.14965C14.2469 0.560082 13.6577 0.193848 13.0002 0.193848C12.3428 0.193848 11.7536 0.560082 11.4627 1.14965L8.91848 6.30476C8.86846 6.40597 8.77197 6.4761 8.66026 6.49235L2.97133 7.31896C2.32072 7.41347 1.79042 7.8606 1.58719 8.48587C1.38396 9.11114 1.55022 9.78465 2.02106 10.2436L6.13765 14.2562C6.21844 14.3351 6.25536 14.4486 6.23626 14.5598L5.26446 20.2258C5.15335 20.8738 5.41467 21.5163 5.94656 21.9028C6.47844 22.2893 7.17049 22.3392 7.75234 22.0334L12.8407 19.3583C12.9406 19.3057 13.0599 19.3057 13.1599 19.3583L18.2483 22.0334C18.5014 22.1664 18.7752 22.2322 19.0478 22.2321C19.4017 22.2321 19.7534 22.1212 20.0539 21.9027C20.5858 21.5162 20.8471 20.8736 20.736 20.2257L19.7642 14.5598C19.7451 14.4485 19.782 14.335 19.8628 14.2562L23.9794 10.2436ZM18.4123 14.7917L19.3841 20.4578C19.4166 20.6474 19.2996 20.7555 19.2477 20.7932C19.1958 20.8307 19.0568 20.9088 18.8866 20.8192L13.7982 18.1441C13.5484 18.0128 13.2744 17.9471 13.0003 17.9471C12.7263 17.9471 12.4522 18.0128 12.2025 18.1441L7.11412 20.8191C6.9438 20.9086 6.80481 20.8307 6.75296 20.7931C6.70112 20.7554 6.58401 20.6473 6.61656 20.4577L7.58836 14.7917C7.68378 14.2354 7.4995 13.6681 7.09523 13.2741L2.97865 9.2614C2.84088 9.12703 2.87206 8.97078 2.89191 8.90984C2.91167 8.84885 2.97834 8.70407 3.16872 8.67645L8.85759 7.84978C9.41613 7.76863 9.89881 7.41804 10.1487 6.9118L12.6928 1.75669C12.778 1.58419 12.9362 1.56555 13.0004 1.56555C13.0644 1.56555 13.2226 1.58414 13.3079 1.75669V1.75674L15.852 6.91185C16.1018 7.41809 16.5845 7.76868 17.143 7.84983L22.832 8.6765C23.0224 8.70413 23.089 8.8489 23.1088 8.90989C23.1286 8.97088 23.1598 9.12718 23.022 9.26145L18.9054 13.2741C18.5012 13.6681 18.3169 14.2354 18.4123 14.7917Z" fill="#CB5050"/>
<path d="M21.0124 1.14908C20.7059 0.926458 20.277 0.994404 20.0544 1.30082L19.3263 2.30283C19.1037 2.60925 19.1716 3.0382 19.4781 3.26082C19.5999 3.34923 19.7409 3.39184 19.8807 3.39184C20.0928 3.39184 20.3019 3.29378 20.4361 3.10914L21.1641 2.10712C21.3867 1.80066 21.3188 1.37171 21.0124 1.14908Z" fill="#CB5050"/>
<path d="M6.66997 2.29837L5.94192 1.29635C5.71934 0.990038 5.29044 0.922092 4.98392 1.14462C4.67751 1.36724 4.60956 1.79619 4.83219 2.10261L5.56024 3.10462C5.69446 3.28942 5.90358 3.38742 6.11574 3.38742C6.25554 3.38742 6.39661 3.34482 6.51828 3.25636C6.8247 3.03378 6.89264 2.60483 6.66997 2.29837Z" fill="#CB5050"/>
<path d="M2.5163 15.5815C2.39925 15.2213 2.01235 15.0241 1.65206 15.1412L0.474083 15.524C0.113791 15.641 -0.0832915 16.028 0.0337593 16.3882C0.127908 16.6781 0.396794 16.8624 0.685892 16.8624C0.756122 16.8624 0.827572 16.8514 0.898005 16.8285L2.07598 16.4457C2.43622 16.3287 2.63335 15.9418 2.5163 15.5815Z" fill="#CB5050"/>
<path d="M13.0003 23.1963C12.6215 23.1963 12.3145 23.5034 12.3145 23.8821V25.1208C12.3145 25.4996 12.6215 25.8067 13.0003 25.8067C13.3791 25.8067 13.6862 25.4996 13.6862 25.1208V23.8821C13.6862 23.5033 13.3791 23.1963 13.0003 23.1963Z" fill="#CB5050"/>
<path d="M25.5252 15.5249L24.3472 15.1421C23.9871 15.0252 23.6 15.2222 23.483 15.5825C23.3659 15.9428 23.563 16.3297 23.9233 16.4467L25.1013 16.8295C25.1717 16.8524 25.2431 16.8632 25.3133 16.8632C25.6025 16.8632 25.8714 16.679 25.9655 16.3891C26.0826 16.0289 25.8854 15.642 25.5252 15.5249Z" fill="#CB5050"/>
</g>
<defs>
<clipPath id="clip0">
<rect width="26" height="26" fill="white"/>
</clipPath>
</defs>
</svg>
