<svg width="26" height="20" viewBox="0 0 26 20" fill="none" xmlns="http://www.w3.org/2000/svg">
<g clip-path="url(#clip0)">
<mask id="path-1-inside-1" fill="white">
<path d="M21.2023 8.52892C21.5176 8.52892 21.8263 8.56003 22.1255 8.61927C22.4314 8.68 22.7279 8.77056 23.0112 8.88799C23.2991 9.00711 23.5738 9.15438 23.8304 9.32598C24.0894 9.49885 24.3298 9.69668 24.549 9.91525C24.7671 10.1334 24.9652 10.3744 25.1387 10.634C25.3101 10.8903 25.4573 11.1647 25.5767 11.4533C25.6941 11.7366 25.7847 12.033 25.8456 12.3394C25.9049 12.6386 25.9362 12.9471 25.9362 13.2624C25.9362 13.5776 25.9051 13.8863 25.8456 14.1853C25.7849 14.4915 25.6941 14.7879 25.5767 15.0712C25.4573 15.3601 25.3099 15.6343 25.1387 15.8907C24.9652 16.1503 24.7676 16.3911 24.5494 16.6093C24.3313 16.8272 24.0905 17.0251 23.8309 17.1986C23.574 17.3702 23.3 17.5174 23.0118 17.6368L23.0063 17.6389C22.7247 17.7552 22.4299 17.8452 22.1257 17.9057C21.8265 17.9649 21.5178 17.996 21.2027 17.996C20.8875 17.996 20.5787 17.9651 20.2796 17.9057C19.9736 17.845 19.677 17.7542 19.3936 17.6368C19.1055 17.5176 18.831 17.3699 18.5742 17.1986C18.3143 17.0251 18.074 16.8272 17.8556 16.6093C17.4199 16.1736 17.0685 15.6523 16.8281 15.071C16.7107 14.7877 16.6201 14.4915 16.5592 14.1851C16.5 13.8861 16.4686 13.5774 16.4686 13.2622C16.4686 12.9469 16.4997 12.6384 16.5592 12.3392C16.6199 12.033 16.7107 11.7364 16.8281 11.4531C16.9477 11.1643 17.0949 10.89 17.2661 10.6338C17.4396 10.3738 17.6375 10.1332 17.8556 9.91504L17.8615 9.90954C18.0788 9.69308 18.3175 9.49715 18.5742 9.32577C18.831 9.15417 19.105 9.0069 19.393 8.88757L19.3985 8.88545C19.6803 8.76908 19.9749 8.67915 20.2789 8.61885C20.5783 8.56003 20.887 8.52892 21.2023 8.52892ZM24.2052 11.3069L19.2491 16.2629C19.3513 16.3298 19.4573 16.3913 19.5663 16.4474C19.7121 16.5225 19.8634 16.5879 20.0191 16.6423C20.2057 16.7077 20.3997 16.7578 20.6001 16.7917C20.795 16.8245 20.9962 16.8416 21.2025 16.8416C21.4425 16.8416 21.6765 16.8181 21.9022 16.7735C22.1343 16.7276 22.358 16.6592 22.5711 16.571C22.7892 16.4804 22.9966 16.3693 23.1898 16.2398C23.3848 16.1093 23.5672 15.9591 23.7344 15.7919C23.9015 15.6248 24.0518 15.4424 24.1821 15.2475C24.3116 15.0543 24.4231 14.847 24.5132 14.6286C24.6017 14.416 24.6698 14.1921 24.7157 13.9604C24.7606 13.7346 24.7839 13.5004 24.7839 13.2603C24.7839 13.0533 24.7667 12.8519 24.7341 12.6572C24.7003 12.4569 24.6503 12.2628 24.5852 12.0766C24.5306 11.9213 24.4654 11.77 24.3903 11.624C24.334 11.5153 24.2722 11.4095 24.2052 11.3069ZM18.3964 15.4879L23.4307 10.4537C23.3106 10.3583 23.1832 10.2697 23.0493 10.189C22.8834 10.089 22.7101 10.0024 22.5313 9.93112C22.3244 9.8486 22.1073 9.78491 21.8819 9.74196C21.6631 9.70028 21.4359 9.67848 21.2023 9.67848C20.9621 9.67848 20.7281 9.70197 20.5022 9.74662C20.2703 9.79253 20.0466 9.86109 19.8337 9.94932L19.8285 9.95143C19.6126 10.0411 19.4076 10.1516 19.2155 10.2805C19.0196 10.4114 18.837 10.5617 18.6704 10.7282C18.5035 10.8953 18.3533 11.0779 18.2229 11.2728C18.0934 11.466 17.9819 11.6733 17.8916 11.8917C17.8033 12.1046 17.735 12.3282 17.6891 12.5601C17.6444 12.7859 17.621 13.0201 17.621 13.2605C17.621 13.4932 17.643 13.7198 17.6846 13.938C17.7276 14.1635 17.7915 14.3808 17.874 14.5871C17.9455 14.7663 18.0319 14.9398 18.1319 15.1057C18.2117 15.2388 18.3004 15.3666 18.3964 15.4879ZM1.53599 6.43187C1.33942 6.59014 1.10012 6.65869 0.867159 6.63965C0.62891 6.62018 0.397855 6.51016 0.226469 6.3119L0.223507 6.3083C0.0563516 6.10898 -0.0162233 5.86333 0.00303125 5.62445C0.0222858 5.3862 0.132523 5.15536 0.330782 4.98376L0.33184 4.98291C2.25899 3.32935 4.31457 2.07674 6.44146 1.24118C8.58252 0.399903 10.7964 -0.0186192 13.0255 0.000635309C15.2237 0.020313 17.4286 0.46613 19.5849 1.35311C21.6792 2.21427 23.7276 3.49163 25.6787 5.19894L25.6804 5.20042C25.8742 5.37266 25.9825 5.60773 25.998 5.84873C26.0136 6.08888 25.9377 6.33433 25.7646 6.52899C25.5926 6.72238 25.3583 6.82987 25.1184 6.84595C24.8774 6.86224 24.6309 6.78628 24.4356 6.61278L24.4246 6.60241C22.6445 5.05083 20.7859 3.89027 18.8941 3.10803C16.9498 2.30399 14.9702 1.89922 13.0056 1.88018C11.0158 1.86135 9.03109 2.2403 7.10288 3.00202C5.19351 3.75633 3.34063 4.88558 1.59439 6.37474C1.57788 6.39653 1.55821 6.41579 1.53599 6.43187ZM13.0001 15.4887C13.6194 15.4887 14.1818 15.7401 14.5889 16.147C14.9949 16.5528 15.2463 17.1135 15.2463 17.7349C15.2463 18.354 14.9951 18.9164 14.588 19.3235C14.1822 19.7294 13.6215 19.9809 13.0001 19.9809C12.381 19.9809 11.8188 19.7296 11.4115 19.3227C11.0056 18.9169 10.7541 18.3562 10.7541 17.7349C10.7541 17.1158 11.0054 16.5534 11.4123 16.1461C11.8181 15.7407 12.3791 15.4887 13.0001 15.4887ZM8.75327 13.9041L8.72788 13.9234C8.53238 14.0706 8.2954 14.1316 8.06752 14.1085C7.83054 14.0844 7.60287 13.971 7.44058 13.7706L7.42746 13.7547C7.42238 13.7486 7.41794 13.742 7.4135 13.7357C7.26687 13.5406 7.20635 13.3043 7.22941 13.077C7.25354 12.84 7.36716 12.6124 7.56753 12.4499L7.5743 12.4446C8.42277 11.7525 9.31039 11.2273 10.22 10.8731C11.1375 10.516 12.0773 10.3334 13.0223 10.3295C13.3782 10.3279 13.7322 10.3518 14.0834 10.4015C14.434 10.451 14.7855 10.5265 15.1369 10.6279C15.2831 10.6702 15.3673 10.8232 15.325 10.9692L15.3191 10.9874C15.2465 11.1858 15.1849 11.3875 15.1342 11.5915C15.0834 11.7963 15.043 12.0051 15.0138 12.2173C14.9928 12.3682 14.8536 12.4738 14.7025 12.4528C14.6885 12.4507 14.6748 12.448 14.6617 12.4439C14.3902 12.3631 14.1185 12.3026 13.8473 12.2624C13.576 12.2222 13.3041 12.2021 13.0312 12.2021L13.0087 12.2013C12.2967 12.2078 11.582 12.3525 10.8753 12.6318C10.1608 12.9143 9.4566 13.3333 8.77465 13.8853C8.76745 13.8918 8.76047 13.8982 8.75327 13.9041ZM5.24471 10.3837C5.05111 10.5557 4.80715 10.6317 4.56827 10.6179C4.3279 10.6044 4.09219 10.4992 3.9189 10.3097L3.91636 10.3069C3.74434 10.1133 3.66775 9.86976 3.68129 9.63109C3.69483 9.39072 3.8002 9.15501 3.98978 8.98172L3.99317 8.97855C5.44065 7.69802 6.9315 6.73127 8.4507 6.09164C9.96674 5.45348 11.5099 5.14118 13.0657 5.16847C14.0597 5.18646 15.0516 5.34177 16.0366 5.63778C17.0101 5.9304 17.9785 6.36035 18.9375 6.93058C19.0689 7.00803 19.1122 7.17751 19.0348 7.30869C18.9986 7.36984 18.9425 7.41195 18.8799 7.43163C18.6438 7.51774 18.4142 7.61888 18.192 7.73356C17.9635 7.85163 17.7443 7.98345 17.5355 8.12754C17.4496 8.18679 17.3417 8.19081 17.2547 8.1468C16.5526 7.7909 15.85 7.52303 15.1496 7.34085C14.4423 7.15698 13.7364 7.05986 13.0343 7.04759C11.7276 7.02559 10.4204 7.29684 9.12482 7.85036C7.81509 8.41065 6.51763 9.25869 5.24471 10.3837Z"/>
</mask>
<path d="M21.2023 8.52892C21.5176 8.52892 21.8263 8.56003 22.1255 8.61927C22.4314 8.68 22.7279 8.77056 23.0112 8.88799C23.2991 9.00711 23.5738 9.15438 23.8304 9.32598C24.0894 9.49885 24.3298 9.69668 24.549 9.91525C24.7671 10.1334 24.9652 10.3744 25.1387 10.634C25.3101 10.8903 25.4573 11.1647 25.5767 11.4533C25.6941 11.7366 25.7847 12.033 25.8456 12.3394C25.9049 12.6386 25.9362 12.9471 25.9362 13.2624C25.9362 13.5776 25.9051 13.8863 25.8456 14.1853C25.7849 14.4915 25.6941 14.7879 25.5767 15.0712C25.4573 15.3601 25.3099 15.6343 25.1387 15.8907C24.9652 16.1503 24.7676 16.3911 24.5494 16.6093C24.3313 16.8272 24.0905 17.0251 23.8309 17.1986C23.574 17.3702 23.3 17.5174 23.0118 17.6368L23.0063 17.6389C22.7247 17.7552 22.4299 17.8452 22.1257 17.9057C21.8265 17.9649 21.5178 17.996 21.2027 17.996C20.8875 17.996 20.5787 17.9651 20.2796 17.9057C19.9736 17.845 19.677 17.7542 19.3936 17.6368C19.1055 17.5176 18.831 17.3699 18.5742 17.1986C18.3143 17.0251 18.074 16.8272 17.8556 16.6093C17.4199 16.1736 17.0685 15.6523 16.8281 15.071C16.7107 14.7877 16.6201 14.4915 16.5592 14.1851C16.5 13.8861 16.4686 13.5774 16.4686 13.2622C16.4686 12.9469 16.4997 12.6384 16.5592 12.3392C16.6199 12.033 16.7107 11.7364 16.8281 11.4531C16.9477 11.1643 17.0949 10.89 17.2661 10.6338C17.4396 10.3738 17.6375 10.1332 17.8556 9.91504L17.8615 9.90954C18.0788 9.69308 18.3175 9.49715 18.5742 9.32577C18.831 9.15417 19.105 9.0069 19.393 8.88757L19.3985 8.88545C19.6803 8.76908 19.9749 8.67915 20.2789 8.61885C20.5783 8.56003 20.887 8.52892 21.2023 8.52892ZM24.2052 11.3069L19.2491 16.2629C19.3513 16.3298 19.4573 16.3913 19.5663 16.4474C19.7121 16.5225 19.8634 16.5879 20.0191 16.6423C20.2057 16.7077 20.3997 16.7578 20.6001 16.7917C20.795 16.8245 20.9962 16.8416 21.2025 16.8416C21.4425 16.8416 21.6765 16.8181 21.9022 16.7735C22.1343 16.7276 22.358 16.6592 22.5711 16.571C22.7892 16.4804 22.9966 16.3693 23.1898 16.2398C23.3848 16.1093 23.5672 15.9591 23.7344 15.7919C23.9015 15.6248 24.0518 15.4424 24.1821 15.2475C24.3116 15.0543 24.4231 14.847 24.5132 14.6286C24.6017 14.416 24.6698 14.1921 24.7157 13.9604C24.7606 13.7346 24.7839 13.5004 24.7839 13.2603C24.7839 13.0533 24.7667 12.8519 24.7341 12.6572C24.7003 12.4569 24.6503 12.2628 24.5852 12.0766C24.5306 11.9213 24.4654 11.77 24.3903 11.624C24.334 11.5153 24.2722 11.4095 24.2052 11.3069ZM18.3964 15.4879L23.4307 10.4537C23.3106 10.3583 23.1832 10.2697 23.0493 10.189C22.8834 10.089 22.7101 10.0024 22.5313 9.93112C22.3244 9.8486 22.1073 9.78491 21.8819 9.74196C21.6631 9.70028 21.4359 9.67848 21.2023 9.67848C20.9621 9.67848 20.7281 9.70197 20.5022 9.74662C20.2703 9.79253 20.0466 9.86109 19.8337 9.94932L19.8285 9.95143C19.6126 10.0411 19.4076 10.1516 19.2155 10.2805C19.0196 10.4114 18.837 10.5617 18.6704 10.7282C18.5035 10.8953 18.3533 11.0779 18.2229 11.2728C18.0934 11.466 17.9819 11.6733 17.8916 11.8917C17.8033 12.1046 17.735 12.3282 17.6891 12.5601C17.6444 12.7859 17.621 13.0201 17.621 13.2605C17.621 13.4932 17.643 13.7198 17.6846 13.938C17.7276 14.1635 17.7915 14.3808 17.874 14.5871C17.9455 14.7663 18.0319 14.9398 18.1319 15.1057C18.2117 15.2388 18.3004 15.3666 18.3964 15.4879ZM1.53599 6.43187C1.33942 6.59014 1.10012 6.65869 0.867159 6.63965C0.62891 6.62018 0.397855 6.51016 0.226469 6.3119L0.223507 6.3083C0.0563516 6.10898 -0.0162233 5.86333 0.00303125 5.62445C0.0222858 5.3862 0.132523 5.15536 0.330782 4.98376L0.33184 4.98291C2.25899 3.32935 4.31457 2.07674 6.44146 1.24118C8.58252 0.399903 10.7964 -0.0186192 13.0255 0.000635309C15.2237 0.020313 17.4286 0.46613 19.5849 1.35311C21.6792 2.21427 23.7276 3.49163 25.6787 5.19894L25.6804 5.20042C25.8742 5.37266 25.9825 5.60773 25.998 5.84873C26.0136 6.08888 25.9377 6.33433 25.7646 6.52899C25.5926 6.72238 25.3583 6.82987 25.1184 6.84595C24.8774 6.86224 24.6309 6.78628 24.4356 6.61278L24.4246 6.60241C22.6445 5.05083 20.7859 3.89027 18.8941 3.10803C16.9498 2.30399 14.9702 1.89922 13.0056 1.88018C11.0158 1.86135 9.03109 2.2403 7.10288 3.00202C5.19351 3.75633 3.34063 4.88558 1.59439 6.37474C1.57788 6.39653 1.55821 6.41579 1.53599 6.43187ZM13.0001 15.4887C13.6194 15.4887 14.1818 15.7401 14.5889 16.147C14.9949 16.5528 15.2463 17.1135 15.2463 17.7349C15.2463 18.354 14.9951 18.9164 14.588 19.3235C14.1822 19.7294 13.6215 19.9809 13.0001 19.9809C12.381 19.9809 11.8188 19.7296 11.4115 19.3227C11.0056 18.9169 10.7541 18.3562 10.7541 17.7349C10.7541 17.1158 11.0054 16.5534 11.4123 16.1461C11.8181 15.7407 12.3791 15.4887 13.0001 15.4887ZM8.75327 13.9041L8.72788 13.9234C8.53238 14.0706 8.2954 14.1316 8.06752 14.1085C7.83054 14.0844 7.60287 13.971 7.44058 13.7706L7.42746 13.7547C7.42238 13.7486 7.41794 13.742 7.4135 13.7357C7.26687 13.5406 7.20635 13.3043 7.22941 13.077C7.25354 12.84 7.36716 12.6124 7.56753 12.4499L7.5743 12.4446C8.42277 11.7525 9.31039 11.2273 10.22 10.8731C11.1375 10.516 12.0773 10.3334 13.0223 10.3295C13.3782 10.3279 13.7322 10.3518 14.0834 10.4015C14.434 10.451 14.7855 10.5265 15.1369 10.6279C15.2831 10.6702 15.3673 10.8232 15.325 10.9692L15.3191 10.9874C15.2465 11.1858 15.1849 11.3875 15.1342 11.5915C15.0834 11.7963 15.043 12.0051 15.0138 12.2173C14.9928 12.3682 14.8536 12.4738 14.7025 12.4528C14.6885 12.4507 14.6748 12.448 14.6617 12.4439C14.3902 12.3631 14.1185 12.3026 13.8473 12.2624C13.576 12.2222 13.3041 12.2021 13.0312 12.2021L13.0087 12.2013C12.2967 12.2078 11.582 12.3525 10.8753 12.6318C10.1608 12.9143 9.4566 13.3333 8.77465 13.8853C8.76745 13.8918 8.76047 13.8982 8.75327 13.9041ZM5.24471 10.3837C5.05111 10.5557 4.80715 10.6317 4.56827 10.6179C4.3279 10.6044 4.09219 10.4992 3.9189 10.3097L3.91636 10.3069C3.74434 10.1133 3.66775 9.86976 3.68129 9.63109C3.69483 9.39072 3.8002 9.15501 3.98978 8.98172L3.99317 8.97855C5.44065 7.69802 6.9315 6.73127 8.4507 6.09164C9.96674 5.45348 11.5099 5.14118 13.0657 5.16847C14.0597 5.18646 15.0516 5.34177 16.0366 5.63778C17.0101 5.9304 17.9785 6.36035 18.9375 6.93058C19.0689 7.00803 19.1122 7.17751 19.0348 7.30869C18.9986 7.36984 18.9425 7.41195 18.8799 7.43163C18.6438 7.51774 18.4142 7.61888 18.192 7.73356C17.9635 7.85163 17.7443 7.98345 17.5355 8.12754C17.4496 8.18679 17.3417 8.19081 17.2547 8.1468C16.5526 7.7909 15.85 7.52303 15.1496 7.34085C14.4423 7.15698 13.7364 7.05986 13.0343 7.04759C11.7276 7.02559 10.4204 7.29684 9.12482 7.85036C7.81509 8.41065 6.51763 9.25869 5.24471 10.3837Z" fill="#CB5050" stroke="#FBF9F8" stroke-width="0.2" mask="url(#path-1-inside-1)"/>
</g>
<defs>
<clipPath id="clip0">
<rect width="26" height="19.9812" fill="white"/>
</clipPath>
</defs>
</svg>
